<?xml version="1.0" encoding="UTF-8" standalone="no"?>
<!-- Created with Inkscape (http://www.inkscape.org/) -->

<svg
   width="426.51834mm"
   height="254.94505mm"
   viewBox="0 0 426.51834 254.94505"
   version="1.1"
   id="svg5"
   inkscape:version="1.1.2 (b8e25be833, 2022-02-05)"
   sodipodi:docname="gfalls.svg"
   xmlns:inkscape="http://www.inkscape.org/namespaces/inkscape"
   xmlns:sodipodi="http://sodipodi.sourceforge.net/DTD/sodipodi-0.dtd"
   xmlns="http://www.w3.org/2000/svg"
   xmlns:svg="http://www.w3.org/2000/svg">
  <sodipodi:namedview
     id="namedview7"
     pagecolor="#ffffff"
     bordercolor="#666666"
     borderopacity="1.0"
     inkscape:pageshadow="2"
     inkscape:pageopacity="0.0"
     inkscape:pagecheckerboard="0"
     inkscape:document-units="mm"
     showgrid="false"
     inkscape:zoom="0.64052329"
     inkscape:cx="770.46379"
     inkscape:cy="501.15274"
     inkscape:window-width="1920"
     inkscape:window-height="1017"
     inkscape:window-x="-8"
     inkscape:window-y="-8"
     inkscape:window-maximized="1"
     inkscape:current-layer="layer1" />
  <defs
     id="defs2" />
  <g
     inkscape:label="Layer 1"
     inkscape:groupmode="layer"
     id="layer1"
     transform="translate(98.837761,-15.864049)">
    <g
       id="g1017"
       transform="matrix(0.26458333,0,0,0.26458333,-134.83272,-5.4770069)">
      <g
         id="Gravity">
	<g
   id="Black">
	</g>

	<g
   id="Orange">
	</g>

	<g
   id="White">
	</g>

	<g
   id="Image">
		<g
   id="g892">
			<path
   d="m 1748.038,107.393 c -27.892,-4.561 -59.786,-8.916 -95.26,-12.736 -6.937,15.735 -13.173,30.328 -13.173,30.328 l -26.11,-34.192 c -135.397,-12.121 -314.393,-15.98 -517.896,3.241 l -2.498,22.936 -9.414,-21.796 c -87.774,8.641 -179.996,21.59 -275.153,40.02 -11.685,24.614 -24.183,53.603 -24.183,53.603 -0.739,-0.831 -1.486,-1.637 -2.239,-2.432 -0.229,-0.243 -0.462,-0.48 -0.694,-0.721 -0.541,-0.56 -1.084,-1.111 -1.631,-1.654 -0.252,-0.251 -0.505,-0.501 -0.759,-0.749 -0.609,-0.591 -1.222,-1.171 -1.84,-1.741 -0.167,-0.155 -0.332,-0.315 -0.5,-0.468 -0.768,-0.7 -1.542,-1.382 -2.323,-2.05 -0.244,-0.208 -0.491,-0.41 -0.737,-0.617 -0.556,-0.465 -1.113,-0.925 -1.675,-1.375 -0.299,-0.24 -0.599,-0.477 -0.9,-0.712 -0.546,-0.426 -1.095,-0.844 -1.646,-1.255 -0.278,-0.207 -0.554,-0.418 -0.833,-0.622 -0.784,-0.572 -1.572,-1.13 -2.367,-1.673 -0.275,-0.188 -0.554,-0.367 -0.83,-0.55 -0.554,-0.37 -1.109,-0.735 -1.668,-1.09 -0.362,-0.231 -0.726,-0.457 -1.091,-0.681 -0.489,-0.301 -0.98,-0.596 -1.473,-0.888 -0.375,-0.222 -0.751,-0.445 -1.13,-0.661 -0.556,-0.319 -1.116,-0.625 -1.677,-0.93 -0.573,-0.312 -1.148,-0.616 -1.726,-0.916 -0.515,-0.265 -1.029,-0.531 -1.547,-0.786 -0.448,-0.22 -0.897,-0.433 -1.348,-0.646 -0.42,-0.199 -0.842,-0.396 -1.265,-0.587 -0.473,-0.216 -0.948,-0.429 -1.424,-0.636 -0.397,-0.173 -0.797,-0.338 -1.197,-0.506 -1.001,-0.418 -2.009,-0.819 -3.024,-1.203 -0.26,-0.098 -0.518,-0.202 -0.778,-0.298 -0.561,-0.206 -1.126,-0.401 -1.691,-0.597 -0.327,-0.114 -0.654,-0.228 -0.983,-0.338 -0.577,-0.193 -1.155,-0.381 -1.736,-0.564 -0.295,-0.093 -0.592,-0.182 -0.888,-0.272 -2.082,-0.633 -4.188,-1.2 -6.32,-1.703 -0.182,-0.042 -0.364,-0.088 -0.547,-0.129 -0.687,-0.158 -1.377,-0.308 -2.069,-0.453 -0.204,-0.042 -0.409,-0.083 -0.614,-0.126 -3.154,-0.641 -6.359,-1.147 -9.616,-1.526 -0.113,-0.014 -0.227,-0.027 -0.34,-0.04 -3.373,-0.383 -6.8,-0.632 -10.277,-0.753 -0.014,-10e-4 -0.027,-10e-4 -0.041,-0.002 0,0 0,0 0,0 -45.39,-1.569 -99.411,18.422 -155.818,40.494 l -5.576,18.894 C 492.052,120.924 392.952,129.044 380.46,129.044 c -12.491,0 -101.806,7.495 -163.639,88.065 -48.717,62.458 -76.823,195.119 -76.823,195.119 0,0 -6.871,54.836 -2.498,86.627 4.372,31.791 32.478,141.107 124.291,167.957 91.813,26.849 141.779,0.617 176.131,-30.612 2.195,5.168 3.833,11.115 4.581,18.113 -0.605,4.441 30.116,-11.673 100.32,-30.878 106.106,-34.623 221.643,-68.377 347.187,-95.058 6.344,-11.54 11.896,-21.989 12.094,-23.573 l 6.139,19.764 c 74.623,-15.325 152.733,-28.087 234.476,-36.994 25.37,-44.61 46.648,-84.222 49.677,-90.184 1.456,9.788 5.704,47.885 10.844,84.331 l 5.509,-0.413 c 81.252,-6.566 165.956,-9.176 254.222,-6.668 17.503,-24.226 35.55,-49.674 49.035,-69.357 8.388,-12.793 15.935,-24.738 21.653,-34.303 -5.48,-30.375 -12.159,-65.738 -17.935,-94.435 9.334,13.707 19.681,28.373 29.474,41.451 3.005,20.926 28.986,161.588 28.987,161.591 7.369,0.581 81.406,6.797 102.206,10.854 2.093,0.25 4.191,0.512 6.289,0.768 12.488,-15.891 62.311,-98.847 65.19,-102.55 2.916,-3.748 -32.062,-159.371 -32.062,-159.371 0,0 33.652,-117.73 32.23,-121.895 z"
   id="path827" />

			<path
   fill="#e96324"
   d="m 591.267,508.786 c -35.461,11.282 -68.381,22.618 -98.385,33.729 l -36.226,93.687 c 30.525,-10.385 60.639,-20.237 90.378,-29.594 16.666,-36.401 34.011,-74.256 44.233,-97.822 z"
   id="path829" />

			<path
   fill="#e96324"
   d="m 402.526,405.941 32.062,-7.495 c -10.826,23.317 -27.065,28.314 -37.058,27.481 z"
   id="path831" />

			<path
   fill="#e96324"
   d="m 418.766,313.504 c 9.993,-2.916 131.161,-43.721 133.659,-44.137 2.499,-0.417 -4.996,17.072 -4.996,17.072 0,0 -124.083,41.222 -136.158,43.72 z"
   id="path833" />

			<path
   fill="#e96324"
   d="m 1342.723,195.875 h 41.431 l -32.062,58.293 c 0,0 -7.912,-51.215 -9.369,-58.293 z"
   id="path835" />

			<path
   fill="#e96324"
   d="m 1498.92,196.968 c 3.279,14.209 9.212,43.564 9.524,44.969 0.313,1.405 25.608,-44.969 25.608,-44.969 z"
   id="path837" />

			<linearGradient
   id="SVGID_1_"
   gradientUnits="userSpaceOnUse"
   x1="131.521"
   y1="444.7041"
   x2="464.1098"
   y2="565.75647">
				<stop
   offset="0.0968"
   style="stop-color:#000000;stop-opacity:0"
   id="stop839" />

				<stop
   offset="0.8387"
   style="stop-color:#E96324"
   id="stop841" />

			</linearGradient>

			<path
   fill="url(#SVGID_1_)"
   d="M 472.479,541.266 C 320.498,646.61 158.108,493.381 181.426,360.971 l 7.912,-58.293 c 0,0 -42.023,75.351 -41.222,116.796 C 132.5,565 214.32,664.308 313.628,664.932 c 82.444,0.626 118.67,-36.226 126.789,-43.721 8.12,-7.494 32.062,-79.945 32.062,-79.945 z"
   id="path844"
   style="fill:url(#SVGID_1_)" />

			<path
   fill="#e96324"
   d="m 668.265,573.716 c 16.793,-38.216 40.058,-92.016 43.802,-100.253 -32.92,8.832 -64.408,17.894 -94.26,27.038 -4.09,10.302 -26.072,62.603 -41.388,98.9 31.325,-9.047 61.921,-17.602 91.846,-25.685 z"
   id="path846" />

			<path
   fill="#e96324"
   d="m 777.302,545.635 c 17.821,-40.288 40.331,-91.527 43.345,-99.139 -31.627,7.24 -62.282,14.784 -91.84,22.528 -4.192,9.924 -26.872,60.296 -45.22,100.579 31.983,-8.531 63.205,-16.517 93.715,-23.968 z"
   id="path848" />

			<path
   fill="#e96324"
   d="m 887.284,520.437 c 15.516,-36.516 36.814,-85.467 41.958,-96.757 -32.762,6.275 -64.745,12.948 -95.827,19.923 -4.24,11.35 -26.839,64.146 -41.686,98.538 32.628,-7.844 64.45,-15.071 95.555,-21.704 z"
   id="path850" />

			<path
   fill="#e96324"
   d="m 1011.358,496.457 49.905,-95.1 c -35.037,5.136 -69.438,10.809 -103.079,16.921 -4.916,13.188 -30.147,65.248 -46.08,96.958 33.894,-6.967 66.943,-13.218 99.254,-18.779 z"
   id="path852" />

			<path
   fill="#e96324"
   d="m 1137.706,477.748 c 20.289,-39.505 42.562,-82.509 47.972,-91.949 -35.089,3.623 -69.725,7.855 -103.792,12.608 l -47.302,94.15 c 35.182,-5.755 69.503,-10.676 103.122,-14.809 z"
   id="path854" />

			<path
   fill="#e96324"
   d="m 1313.665,461.669 c 21.782,-39.245 45.518,-82.53 49.391,-89.686 -34.516,1.292 -68.796,3.271 -102.74,5.86 -3.603,7.899 -26.798,51.42 -47.929,90.667 34.357,-3.116 68.057,-5.381 101.278,-6.841 z"
   id="path856" />

			<path
   fill="#e96324"
   d="m 1454.73,461.799 c 24.873,-38.012 58.67,-83.212 62.677,-89.536 -34.882,-1.004 -63.386,-1.035 -98.004,-0.514 -14.178,24.286 -40.938,69.066 -53.564,89.527 0,0 0.01,0 0.01,0 33.546,-0.634 55.961,-0.444 88.881,0.523 z"
   id="path858" />

			<path
   fill="#e96324"
   d="m 1676.723,478.397 57.819,-89.528 c -36.22,-4.727 -65.028,-8.412 -101.39,-11.155 -5.627,10.949 -34.612,71.114 -46.798,90.932 35.475,2.797 54.69,5.289 90.369,9.751 z"
   id="path860" />

			<path
   fill="#f5e8c4"
   d="m 561.227,293.082 c -57.449,16.782 -135.398,42.658 -167.116,53.245 0.593,19.046 1.961,54.41 1.961,54.41 l 54.026,-15.615 c -4.06,24.358 -28.001,53.089 -52.568,50.59 -24.567,-2.498 -55.484,-25.607 -55.484,-84.63 2.499,-58.71 36.538,-68.704 42.784,-68.704 5.44,0 20.803,4.412 28.414,21.735 43.917,-14.404 105.052,-34.128 137.648,-44.787 -14.927,-79.567 -92.943,-120.204 -162.523,-118.205 -72.868,0.833 -157.394,57.044 -181.96,123.666 -24.566,66.623 -15.822,140.733 -7.911,167.382 7.911,26.649 37.891,112.424 134.492,131.578 96.602,19.153 155.311,-48.105 160.725,-55.698 0.365,4.699 1.289,13.25 2.212,21.378 31.535,-10.704 63.034,-20.867 94.458,-30.492 -8.702,-66.516 -19.368,-141.362 -29.158,-205.853 z"
   id="path862" />

			<g
   id="g872">
				<path
   fill="#f5e8c4"
   d="m 1314.847,92.941 c -33.136,0.862 -66.729,2.341 -100.788,4.449 11.426,64.359 33.508,192.506 46.119,272.204 33.45,-2.619 66.408,-4.583 98.819,-5.915 -11.101,-73.09 -32.893,-202.596 -44.15,-270.738 z"
   id="path864" />

				<path
   fill="#f5e8c4"
   d="m 1703.938,227.416 c 0.496,-3.477 22.317,-77.64 32.492,-109.918 -24.672,-3.708 -49.639,-7.033 -74.916,-9.949 -8.947,25.265 -16.123,48.686 -16.599,47.416 -0.529,-1.41 -19.756,-27.983 -38.149,-53.059 -27.889,-2.537 -56.146,-4.591 -84.768,-6.159 24.323,35.446 77.316,112.282 86.587,123.721 1.593,4.661 13.875,76.013 27.501,149.109 34.337,2.846 67.614,6.538 99.708,11.06 -14.435,-69.522 -32.384,-148.53 -31.856,-152.221 z"
   id="path866" />

				<path
   fill="#f5e8c4"
   d="m 1487.209,186.087 h 45.281 l -18.987,-90.793 c -59.656,-3.059 -120.915,-3.99 -183.829,-2.697 6.932,31.573 17.571,83.932 18.463,94.325 h 45.388 c 1.835,5.202 21.435,106.644 33.517,174.877 32.359,-0.45 64.096,-0.247 95.143,0.595 -12.297,-70.47 -34.976,-176.307 -34.976,-176.307 z"
   id="path868" />

				<path
   fill="#f5e8c4"
   d="m 924.74,360.38 c 7.515,-1.296 14.961,-2.513 22.042,-3.57 4.763,15.907 10.518,34.725 15.907,51.582 30.682,-5.553 61.134,-10.6 91.315,-15.136 -28.721,-80.331 -69.592,-197.874 -96.008,-269.195 -44.691,6.458 -90.108,13.917 -136.28,22.421 2.367,85.847 7.053,207.154 10.333,288.388 31.549,-7.082 62.913,-13.614 94.063,-19.632 -0.425,-19.97 -0.828,-38.626 -1.372,-54.858 z m -14.677,-84.986 c 6.124,-0.462 11.591,-0.758 17.829,-0.758 5.156,17.669 7.284,26.567 10.938,36.629 l -27.777,3.287 c -0.748,-29.13 -0.248,-16.993 -0.99,-39.158 z"
   id="path870" />

			</g>

			<path
   fill="#f5e8c4"
   d="m 776.439,340.152 c 21.86,-31.229 29.355,-121.168 -19.049,-155.52 -48.305,-34.281 -112.782,-9.472 -186.944,16.575 14.904,83.284 34.994,199.285 48.938,288.999 31.131,-9.224 62.176,-17.908 93.104,-26.095 -3.646,-30.564 -8.5,-61.189 -8.5,-61.189 15.43,-1.588 26.57,30.006 29.713,55.651 16.86,-4.341 33.686,-8.548 50.463,-12.582 6.254,-1.504 12.501,-2.982 18.743,-4.444 0.807,-0.189 1.614,-0.379 2.42,-0.567 6.417,-1.498 12.826,-2.978 19.227,-4.431 -7.597,-27.395 -24.671,-76.236 -48.115,-96.397 z m -92.749,-9.993 c -1.874,-14.053 -9.369,-47.156 -9.369,-47.156 46.532,-20.923 65.581,40.285 9.369,47.156 z"
   id="path874" />

			<path
   fill="#f5e8c4"
   d="m 1106.729,106.014 c -0.094,38.28 0.033,72.761 -1.138,69.249 -1.322,-3.966 -14.349,-35.047 -27.577,-66.302 -32.287,3.461 -64.948,7.436 -98.038,11.998 28.257,69.509 75.586,193.77 103.355,268.031 35.139,-4.933 69.885,-9.174 104.186,-12.753 5.237,-91.519 8.046,-218.51 9.092,-277.714 -29.6,2.01 -59.574,4.524 -89.88,7.491 z"
   id="path876" />

			<path
   fill="#8e9e61"
   d="m 1477.217,177.762 h 44.553 c -1.107,-9.942 -10.329,-51.239 -15.561,-75.308 -58.163,-3.118 -113.455,-4.343 -165.706,-4.098 5.712,24.357 15.022,65.231 16.794,79.406 h 46.844 c 0,0 18.047,110.017 29.309,175.257 26.209,-0.487 51.79,-0.563 76.624,-0.224 -11.746,-73.172 -32.179,-171.991 -32.857,-175.033 z"
   id="path878" />

			<path
   fill="#8e9e61"
   d="m 1306.654,98.723 c -29.035,0.495 -57.066,1.439 -84.062,2.755 13.364,63.777 34.409,187.434 44.147,259.724 27.919,-2.172 55.422,-3.926 82.421,-5.272 -9.704,-60.352 -31.116,-188.916 -42.506,-257.207 z"
   id="path880" />

			<path
   fill="#8e9e61"
   d="m 1117.076,108.83 c -2.791,40.445 -6.788,96.729 -7.471,92.303 -0.695,-4.512 -21.178,-51.413 -38.483,-85.824 -28.789,3.194 -55.786,6.733 -80.921,10.457 24.568,65.214 71.522,183.772 100.917,254.046 29.806,-3.986 59.397,-7.528 88.667,-10.625 4.875,-73.626 9.325,-200.508 11.154,-265.972 -25.65,1.567 -50.264,3.466 -73.863,5.615 z"
   id="path882" />

			<path
   fill="#8e9e61"
   d="m 1694.152,226.893 c 0,-1.896 18.938,-70.191 27.892,-105.031 -17.547,-2.205 -34.878,-4.217 -52.031,-6.08 -10.182,27.791 -19.812,58.026 -20.622,55.942 -0.984,-2.528 -27.735,-36.035 -50.41,-62.817 -20.607,-1.751 -40.924,-3.281 -60.893,-4.568 25.012,36.087 77.531,109.781 79.45,112.98 2.121,3.536 15.353,77.335 25.671,141.841 28.347,2.461 55.072,5.607 79.958,9.42 -11.89,-73.013 -29.015,-139.636 -29.015,-141.687 z"
   id="path884" />

			<path
   fill="#8e9e61"
   d="m 763.948,341.401 c 24.983,-18.113 28.106,-114.61 -4.685,-143.028 -32.79,-28.418 -68.703,-24.67 -114.61,-12.179 -30.667,8.344 -51.563,15.848 -62.718,20.193 14.07,80.793 32.062,187.439 45.039,271.901 24.865,-7.484 49.982,-14.603 75.268,-21.395 -2.937,-25.804 -6.582,-60.635 -7.091,-63.23 23.828,-4.793 44.751,14.256 46.099,53.039 23.405,-5.922 46.931,-11.555 70.53,-16.897 -14.891,-52.212 -35.551,-82.263 -47.832,-88.404 z m -86.399,-2.905 -13.741,-64.123 c 58.918,-25.399 101.182,50.382 13.741,64.123 z"
   id="path886" />

			<path
   fill="#8e9e61"
   d="m 554.968,303.719 c -41.464,12.177 -113.581,35.136 -148.868,46.446 0.785,12.253 1.633,26.074 2.299,37.376 19.565,-5.868 41.919,-12.667 58.836,-17.61 -10.171,41.614 -33.095,75.032 -69.705,73.9 -40.391,-1.249 -71.203,-44.97 -63.292,-108.677 7.911,-63.707 52.256,-64.539 55.171,-64.33 2.916,0.208 18.53,-1.457 30.813,20.195 25.637,-9.664 105.248,-34.454 117.825,-37.927 -26.021,-81.209 -109.333,-114.115 -181.324,-98.438 -77.447,16.863 -157.735,77.917 -156.144,197.991 1.591,120.074 68.112,199.444 167.387,201.738 89.939,3.747 129.912,-67.447 133.659,-70.573 2.499,24.354 4.685,34.036 4.685,34.036 0,0 67.455,-25.295 74.325,-25.607 -6.591,-50.95 -20.454,-147.306 -25.667,-188.52 z"
   id="path888" />

			<path
   fill="#8e9e61"
   d="m 953.457,130.612 c -49.376,8.214 -90.528,15.988 -122.128,23.608 3.435,74.417 8.739,189.677 10.267,268.995 25.223,-5.44 50.501,-10.554 75.772,-15.349 -0.268,-19.444 -0.931,-39.723 -1.648,-55.476 13.09,-2.185 27.278,-4.316 40.336,-5.777 3.884,15.536 8.82,34.56 13.486,51.807 25.055,-4.323 50.063,-8.334 74.96,-12.03 -23.543,-69.019 -65.834,-186.186 -91.045,-255.778 z m -51.165,192.989 c 1.25,-21.86 0.625,-51.215 0,-55.587 6.871,0 25.608,-2.498 30.917,-3.435 3.123,12.179 14.365,46.531 16.863,49.966 -9.368,1.561 -47.78,9.056 -47.78,9.056 z"
   id="path890" />

		</g>

	</g>

</g>
      <g
         id="Falls">
	<g
   id="Black_1_">
	</g>

	<g
   id="Orange_1_">
	</g>

	<g
   id="White_1_">
	</g>

	<g
   id="Image_1_">
		<g
   id="g941">
			<path
   d="m 1622.145,553.938 c -10.461,-6.715 -16.239,-10.462 -16.239,-10.462 0,0 9.302,-14.849 14.678,-22.654 -9.635,-33.249 -21.478,-75.559 -29.619,-106.844 -16.009,-4.973 -37.038,-8.906 -57.982,-9.992 -11.394,-0.171 -16.079,-0.271 -26.15,0.297 0.316,-0.473 -0.315,0.472 0,0 -10.283,0.854 -19.977,2.661 -28.375,5.69 -34.628,12.491 -55.417,40.716 -66.794,63.706 -9.316,21.602 -17.02,41.847 -30.604,74.325 -0.313,-4.997 -17.176,-82.132 -30.312,-136.048 -39.938,1.367 -76.445,3.36 -110.945,6.017 -15.183,26.08 -38.313,70.217 -49.656,97.033 0,-2.852 -12.416,-56.341 -20.278,-90.462 -41.333,4.61 -80.987,10.354 -121.884,17.327 -10.997,20.346 -20.175,40.762 -22.31,44.197 -0.354,-3.533 -6.748,-22.399 -12.846,-37.968 -49.853,9.147 -102.653,20.07 -163.363,32.924 l -24.905,59.016 c 0,0 -6.822,-37.538 -11.411,-57.234 -81.075,20.025 -159.401,42.803 -230.296,66.374 -19.388,37.232 -39.901,77.281 -56.919,111.431 -0.021,0.223 -0.044,0.418 -0.071,0.547 -0.684,3.33 63.231,375.578 63.231,383.073 9.369,-3.747 174.882,-53.714 179.254,-54.963 4.373,-1.25 38.933,-76.718 42.887,-84.108 35.829,-10.045 74.456,-19.301 114.575,-27.783 6.586,-11.618 12.696,-23.259 14.921,-27.597 -0.458,2.286 1.536,10.975 5.179,23.436 203.337,-41.202 438.826,-62.929 543.2,-66.314 80.361,-5.006 80.361,-22.077 112.424,-66.63 7.079,-12.909 40.91,-65.166 40.91,-65.166 0,0 37.784,-72.241 -20.3,-121.168 z"
   id="path899" />

			<g
   id="g911">
				<path
   fill="#e96324"
   d="m 1291.897,727.231 c -53.544,5.981 -109.827,13.389 -169.309,22.982 -16.354,30.753 -37.698,68.357 -50.085,89.69 61.035,-10.054 118.339,-17.947 169.947,-24.029 16.183,-34.212 34.334,-65.113 49.447,-88.643 z"
   id="path901" />

				<path
   fill="#e96324"
   d="m 1056.791,842.527 c 18.015,-35.626 33.301,-62.153 50.078,-89.755 -34.82,5.758 -69.605,12.102 -103.278,18.994 -15.005,32.688 -36.692,69.284 -48.339,89.264 34.42,-6.822 68.833,-12.972 101.539,-18.503 z"
   id="path903" />

				<path
   fill="#e96324"
   d="m 1466.859,713.742 c -35.101,0.556 -91.025,4.514 -156.954,11.525 -16.523,33.246 -36.12,68.682 -47.227,88.282 60.233,-6.748 111.848,-10.952 151.438,-13.233 17.84,-32.177 36.824,-63.767 52.743,-86.574 z"
   id="path905" />

				<path
   fill="#e96324"
   d="m 970.27,778.852 c -35.155,7.773 -68.624,16.163 -99.075,25.127 l -46.636,85.775 c 33.134,-7.952 65.971,-15.27 98.276,-21.995 15.318,-33.371 32.532,-64.168 47.435,-88.907 z"
   id="path907" />

				<path
   fill="#e96324"
   d="m 1482.555,713.769 c -17.955,32.397 -35.828,61.701 -50.599,85.61 20.118,-0.95 36.255,-1.326 47.785,-1.23 76.198,0.624 90.146,-29.563 110.966,-60.375 20.819,-30.812 24.776,-37.268 24.776,-37.268 -39.592,21.363 -92.786,14.195 -132.928,13.263 z"
   id="path909" />

			</g>

			<path
   fill="#e96324"
   d="m 606.348,1027.689 c 51.495,-16.498 103.564,-32.474 156.304,-47.743 12.522,-26.793 26.586,-55.407 42.293,-87.065 -50.699,14.99 -103.123,31.031 -157.618,48.158 -12.805,26.974 -26.861,56.593 -40.979,86.65 z"
   id="path913" />

			<path
   fill="#e96324"
   d="m 1597.707,539.963 c 1.05,0.373 10.544,-16.524 9.682,-16.786 -11.88,-2.352 -46.829,3.612 -9.682,16.786"
   id="path915" />

			<path
   fill="#e96324"
   d="m 796.141,727.231 c 0,0 44.97,-11.841 46.531,-13.089 1.562,-1.25 -38.918,80.882 -37.727,84.941 1.189,4.061 -6.306,-65.011 -8.804,-71.852 z"
   id="path917" />

			<path
   fill="#f6e9c5"
   d="m 1644.005,622.434 c -2.811,-55.692 -46.53,-72.868 -55.587,-76.928 -9.057,-4.06 -19.362,-12.491 -18.426,-17.176 0.938,-4.684 5.621,-13.741 35.602,-12.179 -4.061,-15.302 -18.443,-97.351 -24.091,-97.634 -16.943,-2.948 -52.531,-8.364 -84.155,-2.501 -1.248,0.231 -2.486,0.486 -3.72,0.753 -0.439,0.096 -0.876,0.195 -1.313,0.295 -0.987,0.225 -1.967,0.464 -2.945,0.713 -0.325,0.083 -0.654,0.162 -0.979,0.248 -1.229,0.327 -2.445,0.678 -3.655,1.045 -0.376,0.115 -0.751,0.236 -1.127,0.355 -0.963,0.306 -1.92,0.626 -2.867,0.961 -0.322,0.114 -0.647,0.223 -0.968,0.339 -1.193,0.436 -2.371,0.896 -3.534,1.378 -0.305,0.125 -0.603,0.259 -0.903,0.388 -0.945,0.405 -1.88,0.827 -2.804,1.264 -0.305,0.145 -0.61,0.287 -0.914,0.435 -1.138,0.558 -2.26,1.139 -3.359,1.75 -0.218,0.121 -0.429,0.25 -0.646,0.373 -0.925,0.527 -1.837,1.075 -2.731,1.642 -0.282,0.178 -0.565,0.355 -0.843,0.537 -1.061,0.693 -2.105,1.409 -3.118,2.16 -0.121,0.089 -0.233,0.185 -0.353,0.274 -0.908,0.683 -1.791,1.395 -2.659,2.127 -0.254,0.215 -0.508,0.431 -0.758,0.651 -0.96,0.839 -1.903,1.7 -2.809,2.604 -6.3,6.3 -10.935,13.042 -14.039,20.035 -16.023,33.629 -7.734,79.539 26.557,104.462 41.821,30.397 52.092,33.859 49.732,39.142 -1.211,6.965 -5.834,3.291 -50.555,4.15 5.249,27.337 13.251,69.201 19.949,101.298 15.256,0.918 40.351,2.728 60.793,2.187 38.514,0.212 101.806,-13.531 97.225,-85.148 z"
   id="path919" />

			<path
   fill="#f6e9c5"
   d="m 1312.308,717.396 c 55.509,-5.691 107.435,-9.259 156.365,-10.938 -4.971,-25.813 -13.726,-69.094 -20.588,-101.825 -16.435,0.649 -36.841,1.863 -62.237,4.06 0,0 -40.455,-188.863 -42.264,-189.149 -32.629,1.774 -65.095,4.166 -97.293,7.085 15.602,76.97 46.384,215.882 66.017,290.767 z"
   id="path921" />

			<path
   fill="#f6e9c5"
   d="m 1125.773,742.504 c 58.695,-9.593 113.812,-17.166 165.811,-22.902 -8.995,-40.023 -17.143,-75.171 -23.881,-101.481 -30.21,2.921 -51.17,5.051 -65.612,6.729 -10.844,-59.186 -26.259,-133.016 -40.396,-189.292 -33.542,4.029 -66.669,8.583 -99.255,13.561 17.912,84.364 44.429,197.466 63.333,293.385 z"
   id="path923" />

			<path
   fill="#f6e9c5"
   d="m 1003.278,458.714 c -48.389,8.298 -95.336,17.454 -140.4,27.135 3.418,86.001 8.239,199.449 13.068,305.135 30.864,-6.814 60.909,-13.188 90.131,-19.11 -1.155,-20.546 -2.183,-41.124 -3.063,-59.25 9.004,-1.49 17.889,-2.929 26.491,-4.294 4.99,16.21 10.531,34.915 16.423,55.644 34.678,-6.721 68.214,-12.808 100.655,-18.28 -34.079,-92.363 -65.063,-189.458 -103.305,-286.98 z m -49.109,209.87 -0.82,-36.916 c 4.717,-0.772 10.078,-1.642 14.863,-2.363 5.213,11.981 9.778,24.283 13.079,35.156 -8.925,1.293 -18.046,2.685 -27.122,4.123 z"
   id="path925" />

			<path
   fill="#f6e9c5"
   d="m 782.582,719.79 c 20.106,-5.83 40.757,-11.631 61.94,-17.352 l 0.88,2.066 c -5.309,-25.941 -10.67,-52.293 -15.76,-77.511 -20.136,4.691 -39.812,9.464 -58.998,14.284 -1.152,-7.657 -2.281,-15.189 -3.382,-22.563 18.646,-4.672 37.757,-9.298 57.296,-13.846 v -0.236 c -9.738,-48.358 -15.091,-78.653 -20.104,-105.712 -78.386,18.247 -151.513,38.082 -213.488,56.89 11.283,74.726 41.95,268.605 59.022,370.426 C 703.44,912.4 757.634,894.671 807.546,879.791 801.4,841.305 792.017,781.286 782.582,719.79 Z"
   id="path927" />

			<g
   id="g939">
				<path
   fill="#8f9f62"
   d="m 812.551,598.402 c -17.723,4.29 -37.336,9.149 -56.636,14.074 2.157,13.591 4.341,27.523 6.532,41.646 20.121,-5.103 40.312,-10.074 58.088,-14.341 3.63,18.98 7.287,38.327 10.905,57.653 -17.705,4.193 -38.743,9.325 -60.112,14.696 8.683,57.408 16.999,114.318 23.566,160.49 -35.417,10.091 -84.072,24.566 -131.242,39.351 -2.947,-14.582 -7.781,-40.671 -13.449,-72.409 -16.991,-95.146 -41.474,-241.064 -45.079,-280.003 69.494,-19.387 133.597,-37.971 191.016,-51.528 5.936,28.363 9.488,54.678 16.411,90.371 z"
   id="path929" />

				<path
   fill="#8f9f62"
   d="m 1261,628.316 c -17.675,1.376 -36.491,3.293 -65.916,7.792 -13.519,-62.523 -27.008,-139.319 -40.123,-190.167 -27.26,3.077 -52.294,6.653 -82.375,10.981 35.02,142.179 47.933,200.083 61.17,273.797 50.646,-8.076 99.658,-14.756 146.482,-20.009 -6.19,-27.856 -12.986,-56.601 -19.238,-82.394 z"
   id="path931" />

				<path
   fill="#8f9f62"
   d="m 1001.5,468.105 c -39.314,6.699 -81.507,14.736 -127.4,24.532 5.288,80.715 8.669,190.535 11.027,286.295 23.468,-5.328 46.796,-10.412 69.943,-15.243 -0.356,-19.68 -0.904,-39.043 -1.58,-57.288 15.535,-3.091 30.379,-5.984 43.925,-8.562 5.408,17.372 11.317,35.525 17.635,53.812 25.633,-4.94 50.982,-9.562 75.986,-13.855 C 1062.868,652.6 1021.885,531.561 1001.5,468.105 Z m -56.64,210.172 c 0.245,-20.503 0.348,-39.134 0.359,-55.492 10.629,-1.324 21.246,-2.633 31.317,-3.864 5.357,14.68 11.899,32.214 19.184,50.684 -16.034,2.703 -33.652,5.699 -50.86,8.672 z"
   id="path933" />

				<path
   fill="#8f9f62"
   d="m 1317.412,706.794 c 50.146,-4.929 97.453,-8.115 141.18,-9.505 -5.885,-28.953 -12.249,-58.067 -18.025,-83.662 -26.343,1.149 -53.289,2.752 -63.047,3.811 -5.778,-33.562 -38.769,-177.036 -42.889,-187.79 -24.812,2.091 -49.696,4.117 -75.152,6.337 15.171,61.112 39.917,169.458 57.933,270.809 z"
   id="path935" />

				<path
   fill="#8f9f62"
   d="m 1623.081,579.857 c -15.302,-28.418 -56.778,-25.305 -62.146,-54.65 -1.248,-15.614 23.83,-19.049 34.977,-18.112 l -20.923,-80.882 c 0,0 -37.788,-5.726 -59.231,-3.852 -21.443,1.874 -67.454,9.37 -71.202,64.333 -3.747,54.963 49.551,81.612 58.294,87.023 8.744,5.413 28.314,15.821 27.066,25.4 -1.25,9.576 -13.74,14.573 -30.813,13.323 -3.57,-0.261 -10.134,-0.284 -18.449,-0.142 5.021,23.477 10.443,55.28 15.014,84.042 24.983,0.157 76.588,8.408 105.242,-7.495 37.331,-20.714 52.152,-62.769 22.171,-108.988 z"
   id="path937" />

			</g>

		</g>

	</g>

</g>
    </g>
  </g>
</svg>
